<?xml version="1.0" standalone="no"?>
<!DOCTYPE svg PUBLIC "-//W3C//DTD SVG 20010904//EN"
 "http://www.w3.org/TR/2001/REC-SVG-20010904/DTD/svg10.dtd">
<svg version="1.0" xmlns="http://www.w3.org/2000/svg"
 width="59.000000pt" height="52.000000pt" viewBox="0 0 59.000000 52.000000"
 preserveAspectRatio="xMidYMid meet">
<metadata>
Created by potrace 1.10, written by Peter Selinger 2001-2011
</metadata>
<g transform="translate(0.000000,52.000000) scale(0.100000,-0.100000)"
fill="#000000" stroke="none">
<path d="M228 399 c-39 -20 -69 -59 -46 -59 6 0 22 9 34 21 44 42 131 41 169
-1 18 -20 45 -27 45 -12 0 14 -43 50 -73 61 -42 16 -87 13 -129 -10z"/>
<path d="M253 358 c-32 -16 -29 -32 5 -22 31 9 55 8 97 -1 28 -7 29 -6 14 10
-20 21 -86 29 -116 13z"/>
<path d="M104 335 c38 -29 127 -55 185 -55 62 0 172 30 205 55 25 19 24 19
-52 -5 -41 -13 -92 -20 -142 -20 -50 0 -101 7 -142 20 -75 23 -79 24 -54 5z"/>
<path d="M153 243 c12 -74 72 -127 145 -127 80 0 139 50 157 132 5 24 3 32 -8
32 -9 0 -17 -14 -21 -39 -6 -42 -48 -86 -92 -97 -68 -17 -145 32 -158 101 -9
48 -30 46 -23 -2z"/>
<path d="M200 251 c0 -49 82 -101 131 -82 48 18 100 101 65 101 -9 0 -16 -7
-16 -15 0 -26 -47 -65 -78 -65 -31 0 -67 28 -77 60 -8 25 -25 26 -25 1z"/>
</g>
</svg>
